<svg width="123" height="61" viewBox="0 0 123 61" fill="none" xmlns="http://www.w3.org/2000/svg">
<g clip-path="url(#clip0_439_531)">
<path d="M119.197 15.157H114.84C113.822 15.157 113.666 16.2777 113.573 16.9486C113.565 17.0115 113.555 17.0768 113.548 17.1446L106.21 2.75902L106.164 1.11064L106.139 0.183432L105.212 0.133177L102.765 0H102.722H102.679L44.5145 1.73884C43.3981 1.77402 42.3675 2.29667 41.6846 3.17363L36.2995 10.0938C35.0748 10.2395 34.1223 11.2823 34.1223 12.5437V12.8955L31.1866 16.6672C21.0766 17.9286 12.7836 19.8006 5.8437 22.3888L5.76559 22.4189L5.69251 22.4617L5.2616 22.7104L2.85255 24.0975L2.36369 24.3789L2.34857 24.9418L2.18225 30.8995L1.69591 30.9749L1.07349 31.0729L0.889533 31.6735L0.0503985 34.4124L0 34.5782L0.00755977 34.7491L0.229313 39.9003L0.32759 41.9708L0.347749 42.3703L0.635021 42.6467L4.44515 46.3129C4.41995 46.6596 4.40483 47.0064 4.40483 47.3531C4.40483 54.8814 10.5459 61.005 18.0956 61.005C18.7432 61.005 19.3883 60.9598 20.0132 60.8719C20.6382 60.9598 21.2833 61.005 21.9309 61.005C26.9329 61.005 31.4537 58.3465 33.8804 54.022H53.2535L54.2918 55.0573L54.5866 55.3513H60.6394L60.9343 55.0573L62.6755 53.321H78.7501C81.0332 58.0098 85.7958 61.005 91.065 61.005C91.637 61.005 92.2091 60.9699 92.766 60.8995C93.3203 60.9699 93.8898 61.005 94.4644 61.005C101.858 61.005 107.901 55.1327 108.148 47.818L111.444 47.0994L111.67 47.0491L111.852 46.9059L114.445 44.863L114.742 44.6293L114.813 44.2599L115.478 40.7169H119.197C122.894 40.7169 123 29.2461 123 27.937C123 26.6278 122.894 15.1595 119.197 15.1595V15.157ZM119.197 39.7093H114.84C114.79 39.7093 114.74 39.6138 114.692 39.4354L113.822 44.0715L111.229 46.1144L107.142 47.0039C107.145 47.1195 107.147 47.2325 107.147 47.3481C107.147 54.3336 101.47 59.9949 94.4644 59.9949C93.8873 59.9949 93.3203 59.9572 92.766 59.8818C92.2091 59.9572 91.6421 59.9949 91.065 59.9949C85.8286 59.9949 81.3305 56.8288 79.3978 52.3108H62.2572L60.2211 54.3412H55.0024L53.6693 53.0119H33.2731C31.1891 57.153 26.8926 59.9949 21.9309 59.9949C21.2782 59.9949 20.6382 59.9472 20.0132 59.8517C19.3883 59.9472 18.7482 59.9949 18.0956 59.9949C11.0902 59.9949 5.4128 54.3336 5.4128 47.3481C5.4128 46.8657 5.44052 46.3882 5.49343 45.9209L1.33556 41.918L1.23728 39.8525L1.01553 34.7014L1.85466 31.9624L3.16754 31.7564L3.35654 24.9644L5.76811 23.5773L6.19901 23.3286C13.7537 20.5117 22.4172 18.7528 31.7284 17.612L35.1328 13.2373V12.5412C35.1328 11.7346 35.788 11.0788 36.5994 11.0788H36.8085L42.4834 3.78674C42.9798 3.1485 43.7358 2.76656 44.5472 2.74143L102.712 1.0026L105.156 1.13577L105.207 3.0103L112.764 17.8281L112.847 19.4262L113.306 28.3038L113.399 30.1005L114.158 30.1432C114.15 29.427 114.145 28.6883 114.145 27.932C114.145 21.4314 114.457 16.1596 114.84 16.1596H119.197C120.74 16.1596 121.992 21.4314 121.992 27.932C121.992 34.4325 120.74 39.7068 119.197 39.7068V39.7093Z" fill="black"/>
<path d="M68.8345 42.8476C68.8345 41.4455 67.6904 40.3047 66.2843 40.3047H50.3382C48.9321 40.3047 47.7881 41.4455 47.7881 42.8476V48.7777H68.8345V42.8476ZM67.8265 47.7701H48.7961V42.8451C48.7961 41.9958 49.489 41.3073 50.3382 41.3073H66.2843C67.1361 41.3073 67.8265 41.9983 67.8265 42.8451V47.7701Z" fill="black"/>
<path d="M95.5228 42.8476C95.5228 41.4455 94.3787 40.3047 92.9726 40.3047H80.9349C79.5288 40.3047 78.3848 41.4455 78.3848 42.8476V48.7777H95.5228V42.8476ZM94.5148 47.7701H79.3927V42.8451C79.3927 41.9958 80.0857 41.3073 80.9349 41.3073H92.9726C93.8243 41.3073 94.5148 41.9983 94.5148 42.8451V47.7701Z" fill="black"/>
<path d="M68.958 17.1725H70.0618C70.3994 17.1725 70.7169 17.0242 70.9336 16.7654C71.1504 16.5066 71.236 16.1674 71.1756 15.8357L70.5229 12.3806C70.4221 11.8479 69.9534 11.4609 69.4116 11.4609H68.9605C68.3356 11.4609 67.8291 11.966 67.8291 12.5892V16.0442C67.8291 16.6674 68.3356 17.1725 68.9605 17.1725H68.958ZM68.8345 12.5917C68.8345 12.5238 68.89 12.4686 68.958 12.4686H69.4091C69.4696 12.4686 69.52 12.5113 69.5301 12.5691L70.1827 16.0241C70.1928 16.0719 70.1726 16.1045 70.1575 16.1246C70.1399 16.1447 70.1096 16.1699 70.0618 16.1699H68.958C68.89 16.1699 68.8345 16.1146 68.8345 16.0467V12.5917Z" fill="black"/>
<path d="M66.0821 38.7524L68.3424 39.0338C68.418 39.0439 68.4911 39.0489 68.5642 39.0489C69.4512 39.0489 70.2248 38.3881 70.3357 37.4885L72.4348 20.7534C72.5583 19.7785 71.8602 18.8864 70.8825 18.7633L68.6221 18.4819C67.6444 18.3588 66.7498 19.0548 66.6264 20.0298L64.5273 36.7648C64.4693 37.2372 64.5978 37.7046 64.8901 38.079C65.1824 38.4559 65.6058 38.6946 66.0795 38.7524H66.0821ZM65.5302 36.8854L67.6293 20.1504C67.6797 19.7584 68.0148 19.4694 68.4029 19.4694C68.4357 19.4694 68.4684 19.4694 68.5012 19.4744L70.7616 19.7559C71.1874 19.8086 71.4923 20.1981 71.4394 20.6228L69.3403 37.3578C69.2874 37.7825 68.8943 38.084 68.4709 38.0338L66.2106 37.7523C66.0039 37.7272 65.82 37.6217 65.6915 37.4583C65.563 37.295 65.5075 37.0915 65.5327 36.8854H65.5302Z" fill="black"/>
<path d="M93.7559 17.1725H94.8596C95.1973 17.1725 95.5148 17.0242 95.7315 16.7654C95.9482 16.5066 96.0339 16.1674 95.9734 15.8357L95.3208 12.3806C95.22 11.8479 94.7512 11.4609 94.2095 11.4609H93.7584C93.1335 11.4609 92.627 11.966 92.627 12.5892V16.0442C92.627 16.6674 93.1335 17.1725 93.7584 17.1725H93.7559ZM93.6324 12.5917C93.6324 12.5238 93.6878 12.4686 93.7559 12.4686H94.207C94.2674 12.4686 94.3178 12.5113 94.3279 12.5691L94.9806 16.0241C94.9906 16.0719 94.9705 16.1045 94.9554 16.1246C94.9377 16.1447 94.9075 16.1699 94.8596 16.1699H93.7559C93.6878 16.1699 93.6324 16.1146 93.6324 16.0467V12.5917Z" fill="black"/>
<path d="M90.9036 38.5736L93.164 38.8551C93.2396 38.8651 93.3152 38.8702 93.3908 38.8702C93.7864 38.8702 94.1669 38.7395 94.4845 38.4932C94.8624 38.2018 95.1018 37.7796 95.1598 37.3072L97.2362 20.7481C97.3572 19.7731 96.6617 18.8811 95.6839 18.7579L93.4236 18.4765C92.4458 18.3559 91.5513 19.0494 91.4278 20.0244L89.3514 36.5835C89.2909 37.0559 89.4219 37.5233 89.7142 37.8977C90.0065 38.2746 90.4299 38.5133 90.9036 38.5711V38.5736ZM90.3518 36.7092L92.4282 20.15C92.4786 19.758 92.8137 19.4691 93.2018 19.4691C93.2346 19.4691 93.2673 19.4691 93.3001 19.4741L95.5605 19.7555C95.9863 19.8083 96.2912 20.1978 96.2383 20.6224L94.1619 37.1816C94.1367 37.3876 94.0309 37.5711 93.8671 37.6992C93.7033 37.8274 93.4992 37.8826 93.2925 37.8575L91.0322 37.5761C90.8255 37.551 90.6416 37.4454 90.513 37.2821C90.3845 37.1188 90.3291 36.9152 90.3543 36.7092H90.3518Z" fill="black"/>
<path d="M97.1049 36.7816V37.0379V49.9007H42.5536L35.5205 34.5352L42.1605 50.2525L42.2235 50.4033H42.3923H97.3569H97.6089V50.152V37.2841L112.058 37.0379L97.3594 36.7866L97.1049 36.7816Z" fill="black"/>
<path opacity="0.5" d="M98.3389 2.71777V35.6336H112.039L111.126 17.5148L104.124 2.71777H98.3389Z" fill="#90B6BE"/>
</g>
<defs>
<clipPath id="clip0_439_531">
<rect width="123" height="61" fill="white"/>
</clipPath>
</defs>
</svg>
