<svg width="123" height="61" viewBox="0 0 123 61" fill="none" xmlns="http://www.w3.org/2000/svg">
<g clip-path="url(#clip0_439_541)">
<path d="M119.197 15.157H114.84C113.822 15.157 113.666 16.2777 113.573 16.9486C113.565 17.0115 113.555 17.0768 113.548 17.1446L106.21 2.75902L106.164 1.11064L106.139 0.183432L105.212 0.133177L102.765 0H102.722H102.679L44.5145 1.73884C43.3981 1.77402 42.3675 2.29667 41.6846 3.17363L36.2995 10.0938C35.0748 10.2395 34.1223 11.2823 34.1223 12.5437V12.8955L31.1866 16.6672C21.0766 17.9286 12.7836 19.8006 5.8437 22.3888L5.76559 22.4189L5.69251 22.4617L5.2616 22.7104L2.85255 24.0975L2.36369 24.3789L2.34857 24.9418L2.18225 30.8995L1.69591 30.9749L1.07349 31.0729L0.889533 31.6735L0.0503985 34.4124L0 34.5782L0.00755977 34.7491L0.229313 39.9003L0.32759 41.9708L0.347749 42.3703L0.635021 42.6467L4.44515 46.3129C4.41995 46.6596 4.40483 47.0064 4.40483 47.3531C4.40483 54.8814 10.5459 61.005 18.0956 61.005C18.7432 61.005 19.3883 60.9598 20.0132 60.8719C20.6382 60.9598 21.2833 61.005 21.9309 61.005C26.9329 61.005 31.4537 58.3465 33.8804 54.022H53.2535L54.2918 55.0573L54.5866 55.3513H60.6394L60.9343 55.0573L62.6755 53.321H78.7501C81.0332 58.0098 85.7958 61.005 91.065 61.005C91.637 61.005 92.2091 60.9699 92.766 60.8995C93.3203 60.9699 93.8898 61.005 94.4644 61.005C101.858 61.005 107.901 55.1327 108.148 47.818L111.444 47.0994L111.67 47.0491L111.852 46.9059L114.445 44.863L114.742 44.6293L114.813 44.2599L115.478 40.7169H119.197C122.894 40.7169 123 29.2461 123 27.937C123 26.6278 122.894 15.1595 119.197 15.1595V15.157ZM119.197 39.7093H114.84C114.79 39.7093 114.74 39.6138 114.692 39.4354L113.822 44.0715L111.229 46.1144L107.142 47.0039C107.145 47.1195 107.147 47.2325 107.147 47.3481C107.147 54.3336 101.47 59.9949 94.4644 59.9949C93.8873 59.9949 93.3203 59.9572 92.766 59.8818C92.2091 59.9572 91.6421 59.9949 91.065 59.9949C85.8286 59.9949 81.3305 56.8288 79.3978 52.3108H62.2572L60.2211 54.3412H55.0024L53.6693 53.0119H33.2731C31.1891 57.153 26.8926 59.9949 21.9309 59.9949C21.2782 59.9949 20.6382 59.9472 20.0132 59.8517C19.3883 59.9472 18.7482 59.9949 18.0956 59.9949C11.0902 59.9949 5.4128 54.3336 5.4128 47.3481C5.4128 46.8657 5.44052 46.3882 5.49343 45.9209L1.33556 41.918L1.23728 39.8525L1.01553 34.7014L1.85466 31.9624L3.16754 31.7564L3.35654 24.9644L5.76811 23.5773L6.19901 23.3286C13.7537 20.5117 22.4172 18.7528 31.7284 17.612L35.1328 13.2373V12.5412C35.1328 11.7346 35.788 11.0788 36.5994 11.0788H36.8085L42.4834 3.78674C42.9798 3.1485 43.7358 2.76656 44.5472 2.74143L102.712 1.0026L105.156 1.13577L105.207 3.0103L112.764 17.8281L112.847 19.4262L113.306 28.3038L113.399 30.1005L114.158 30.1432C114.15 29.427 114.145 28.6883 114.145 27.932C114.145 21.4314 114.457 16.1596 114.84 16.1596H119.197C120.74 16.1596 121.992 21.4314 121.992 27.932C121.992 34.4325 120.74 39.7068 119.197 39.7068V39.7093Z" fill="black"/>
<path d="M68.8345 42.8476C68.8345 41.4455 67.6904 40.3047 66.2843 40.3047H50.3382C48.9321 40.3047 47.7881 41.4455 47.7881 42.8476V48.7777H68.8345V42.8476ZM67.8265 47.7701H48.7961V42.8451C48.7961 41.9958 49.489 41.3073 50.3382 41.3073H66.2843C67.1361 41.3073 67.8265 41.9983 67.8265 42.8451V47.7701Z" fill="black"/>
<path d="M68.958 17.1725H70.0618C70.3994 17.1725 70.7169 17.0242 70.9336 16.7654C71.1504 16.5066 71.236 16.1674 71.1756 15.8357L70.5229 12.3806C70.4221 11.8479 69.9534 11.4609 69.4116 11.4609H68.9605C68.3356 11.4609 67.8291 11.966 67.8291 12.5892V16.0442C67.8291 16.6674 68.3356 17.1725 68.9605 17.1725H68.958ZM68.8345 12.5917C68.8345 12.5238 68.89 12.4686 68.958 12.4686H69.4091C69.4696 12.4686 69.52 12.5113 69.5301 12.5691L70.1827 16.0241C70.1928 16.0719 70.1726 16.1045 70.1575 16.1246C70.1399 16.1447 70.1096 16.1699 70.0618 16.1699H68.958C68.89 16.1699 68.8345 16.1146 68.8345 16.0467V12.5917Z" fill="black"/>
<path d="M66.0821 38.7515L68.3424 39.0329C68.418 39.043 68.4936 39.048 68.5667 39.048C68.9623 39.048 69.3428 38.9173 69.6604 38.6711C70.0383 38.3796 70.2777 37.9575 70.3357 37.4851L72.4348 20.75C72.5583 19.7751 71.8602 18.883 70.8825 18.7599L68.6221 18.4785C67.6444 18.3579 66.7498 19.0514 66.6264 20.0263L64.5273 36.7614C64.4693 37.2338 64.5978 37.7012 64.8901 38.0756C65.1824 38.4525 65.6058 38.6912 66.0795 38.749L66.0821 38.7515ZM65.5302 36.8845L67.6293 20.1495C67.6545 19.9434 67.7603 19.76 67.9241 19.6318C68.0627 19.5238 68.229 19.4685 68.4004 19.4685C68.4331 19.4685 68.4659 19.4685 68.4987 19.4735L70.759 19.755C71.1849 19.8077 71.4898 20.1972 71.4369 20.6219L69.3378 37.3569C69.3126 37.563 69.2068 37.7464 69.043 37.8745C68.8792 38.0027 68.6751 38.0555 68.4684 38.0328L66.2081 37.7514C66.0014 37.7263 65.8175 37.6208 65.689 37.4574C65.5604 37.2941 65.505 37.0906 65.5302 36.8845Z" fill="black"/>
<path d="M72.1679 37.9049L72.8206 41.36C72.9214 41.8927 73.3901 42.2796 73.9319 42.2796H74.3829C74.897 42.2796 75.3254 41.9354 75.464 41.468C75.7764 41.9907 76.3459 42.3425 76.9986 42.3425H80.5819C79.3421 42.5133 78.382 43.5762 78.382 44.8577V48.7752H95.52V44.8577C95.52 43.5737 94.56 42.5133 93.3201 42.3425H93.7334C94.7187 42.3425 95.52 41.5434 95.52 40.5609V38.2894C95.52 37.3069 94.7187 36.5078 93.7334 36.5078H76.9986C76.3459 36.5078 75.7739 36.8596 75.464 37.3823C75.3254 36.9149 74.897 36.5706 74.3829 36.5706H73.2792C72.9415 36.5706 72.624 36.7189 72.4073 36.9777C72.1906 37.2365 72.1049 37.5757 72.1654 37.9074L72.1679 37.9049ZM94.5146 44.8577V47.77H79.3925V44.8577C79.3925 44.0084 80.0855 43.3199 80.9347 43.3199H92.9724C93.8241 43.3199 94.5146 44.0109 94.5146 44.8577ZM76.2199 38.2894C76.2199 37.8597 76.5702 37.5129 76.9986 37.5129H93.7334C94.1643 37.5129 94.5121 37.8622 94.5121 38.2894V40.5609C94.5121 40.9906 94.1618 41.3374 93.7334 41.3374H76.9986C76.5677 41.3374 76.2199 40.9881 76.2199 40.5609V38.2894ZM73.1834 37.6185C73.2011 37.5984 73.2313 37.5732 73.2792 37.5732H74.3829C74.451 37.5732 74.5064 37.6285 74.5064 37.6964V41.1514C74.5064 41.2193 74.451 41.2745 74.3829 41.2745H73.9319C73.8714 41.2745 73.821 41.2318 73.8109 41.174L73.1582 37.719C73.1482 37.6712 73.1683 37.6386 73.1834 37.6185Z" fill="black"/>
<path d="M97.1049 36.7816V37.0379V49.9007H42.5536L35.5205 34.5352L42.1605 50.2525L42.2235 50.4033H42.3923H97.3569H97.6089V50.152V37.2841L112.058 37.0379L97.3594 36.7866L97.1049 36.7816Z" fill="black"/>
<path opacity="0.5" d="M73.374 2.97656V35.6116H112.04L111.126 17.9216L104.124 2.97656H73.374Z" fill="#90B6BE"/>
</g>
<defs>
<clipPath id="clip0_439_541">
<rect width="123" height="61" fill="white"/>
</clipPath>
</defs>
</svg>
