<svg width="16" height="16" viewBox="0 0 16 16" fill="none" xmlns="http://www.w3.org/2000/svg">
<path d="M8 13.9998C7.53333 13.9998 7.13889 13.8387 6.81667 13.5165C6.49444 13.1943 6.33333 12.7998 6.33333 12.3332C6.33333 11.8665 6.49444 11.4721 6.81667 11.1498C7.13889 10.8276 7.53333 10.6665 8 10.6665C8.46667 10.6665 8.86111 10.8276 9.18333 11.1498C9.50556 11.4721 9.66667 11.8665 9.66667 12.3332C9.66667 12.7998 9.50556 13.1943 9.18333 13.5165C8.86111 13.8387 8.46667 13.9998 8 13.9998ZM4.23333 10.2332L2.83333 8.79984C3.48889 8.14428 4.25833 7.62484 5.14167 7.2415C6.025 6.85817 6.97778 6.6665 8 6.6665C9.02222 6.6665 9.975 6.86095 10.8583 7.24984C11.7417 7.63873 12.5111 8.1665 13.1667 8.83317L11.7667 10.2332C11.2778 9.74428 10.7111 9.36095 10.0667 9.08317C9.42222 8.80539 8.73333 8.6665 8 8.6665C7.26667 8.6665 6.57778 8.80539 5.93333 9.08317C5.28889 9.36095 4.72222 9.74428 4.23333 10.2332ZM1.4 7.39984L0 5.99984C1.02222 4.95539 2.21667 4.13873 3.58333 3.54984C4.95 2.96095 6.42222 2.6665 8 2.6665C9.57778 2.6665 11.05 2.96095 12.4167 3.54984C13.7833 4.13873 14.9778 4.95539 16 5.99984L14.6 7.39984C13.7444 6.54428 12.7528 5.87484 11.625 5.3915C10.4972 4.90817 9.28889 4.6665 8 4.6665C6.71111 4.6665 5.50278 4.90817 4.375 5.3915C3.24722 5.87484 2.25556 6.54428 1.4 7.39984Z" fill="#111111"/>
</svg>
