<svg width="16" height="16" viewBox="0 0 16 16" fill="none" xmlns="http://www.w3.org/2000/svg">
<path d="M7.99967 14.6668C6.8219 14.6668 5.86079 14.4807 5.11634 14.1085C4.3719 13.7363 3.99967 13.2557 3.99967 12.6668C3.99967 12.4002 4.08023 12.1529 4.24134 11.9252C4.40245 11.6974 4.62745 11.5002 4.91634 11.3335L5.96634 12.3168C5.86634 12.3613 5.75801 12.4113 5.64134 12.4668C5.52467 12.5224 5.43301 12.5891 5.36634 12.6668C5.51079 12.8446 5.84412 13.0002 6.36634 13.1335C6.88856 13.2668 7.43301 13.3335 7.99967 13.3335C8.56634 13.3335 9.11356 13.2668 9.64134 13.1335C10.1691 13.0002 10.5052 12.8446 10.6497 12.6668C10.5719 12.5779 10.4719 12.5057 10.3497 12.4502C10.2275 12.3946 10.1108 12.3446 9.99967 12.3002L11.033 11.3002C11.3441 11.4779 11.583 11.6807 11.7497 11.9085C11.9163 12.1363 11.9997 12.3891 11.9997 12.6668C11.9997 13.2557 11.6275 13.7363 10.883 14.1085C10.1386 14.4807 9.17745 14.6668 7.99967 14.6668ZM8.01634 11.0002C9.11634 10.1891 9.94412 9.37516 10.4997 8.5585C11.0552 7.74183 11.333 6.92238 11.333 6.10016C11.333 4.96683 10.9719 4.11127 10.2497 3.5335C9.52745 2.95572 8.77745 2.66683 7.99967 2.66683C7.2219 2.66683 6.4719 2.95572 5.74967 3.5335C5.02745 4.11127 4.66634 4.96683 4.66634 6.10016C4.66634 6.84461 4.93856 7.61961 5.48301 8.42516C6.02745 9.23072 6.8719 10.0891 8.01634 11.0002ZM7.99967 12.6668C6.43301 11.5113 5.26356 10.3891 4.49134 9.30016C3.71912 8.21127 3.33301 7.14461 3.33301 6.10016C3.33301 5.31127 3.47467 4.61961 3.75801 4.02516C4.04134 3.43072 4.40523 2.9335 4.84967 2.5335C5.29412 2.1335 5.79412 1.8335 6.34967 1.6335C6.90523 1.4335 7.45523 1.3335 7.99967 1.3335C8.54412 1.3335 9.09412 1.4335 9.64967 1.6335C10.2052 1.8335 10.7052 2.1335 11.1497 2.5335C11.5941 2.9335 11.958 3.43072 12.2413 4.02516C12.5247 4.61961 12.6663 5.31127 12.6663 6.10016C12.6663 7.14461 12.2802 8.21127 11.508 9.30016C10.7358 10.3891 9.56634 11.5113 7.99967 12.6668ZM7.99967 7.3335C8.36634 7.3335 8.68023 7.20294 8.94134 6.94183C9.20245 6.68072 9.33301 6.36683 9.33301 6.00016C9.33301 5.6335 9.20245 5.31961 8.94134 5.0585C8.68023 4.79738 8.36634 4.66683 7.99967 4.66683C7.63301 4.66683 7.31912 4.79738 7.05801 5.0585C6.7969 5.31961 6.66634 5.6335 6.66634 6.00016C6.66634 6.36683 6.7969 6.68072 7.05801 6.94183C7.31912 7.20294 7.63301 7.3335 7.99967 7.3335Z" fill="#111111"/>
</svg>
