<svg width="16" height="16" viewBox="0 0 16 16" fill="none" xmlns="http://www.w3.org/2000/svg">
<path d="M7.99967 14.6668C7.08856 14.6668 6.22745 14.4918 5.41634 14.1418C4.60523 13.7918 3.8969 13.3141 3.29134 12.7085C2.68579 12.1029 2.20801 11.3946 1.85801 10.5835C1.50801 9.77238 1.33301 8.91127 1.33301 8.00016C1.33301 7.07794 1.50801 6.21405 1.85801 5.4085C2.20801 4.60294 2.68579 3.89738 3.29134 3.29183C3.8969 2.68627 4.60523 2.2085 5.41634 1.8585C6.22745 1.5085 7.08856 1.3335 7.99967 1.3335C8.9219 1.3335 9.78579 1.5085 10.5913 1.8585C11.3969 2.2085 12.1025 2.68627 12.708 3.29183C13.3136 3.89738 13.7913 4.60294 14.1413 5.4085C14.4913 6.21405 14.6663 7.07794 14.6663 8.00016C14.6663 8.91127 14.4913 9.77238 14.1413 10.5835C13.7913 11.3946 13.3136 12.1029 12.708 12.7085C12.1025 13.3141 11.3969 13.7918 10.5913 14.1418C9.78579 14.4918 8.9219 14.6668 7.99967 14.6668ZM7.99967 10.6668C8.66634 10.6668 9.31634 10.7641 9.94967 10.9585C10.583 11.1529 11.1775 11.4335 11.733 11.8002C12.2441 11.2891 12.6386 10.7085 12.9163 10.0585C13.1941 9.4085 13.333 8.72238 13.333 8.00016C13.333 6.51127 12.8163 5.25016 11.783 4.21683C10.7497 3.1835 9.48856 2.66683 7.99967 2.66683C6.51079 2.66683 5.24967 3.1835 4.21634 4.21683C3.18301 5.25016 2.66634 6.51127 2.66634 8.00016C2.66634 8.72238 2.80245 9.41127 3.07467 10.0668C3.3469 10.7224 3.74412 11.3002 4.26634 11.8002C4.8219 11.4335 5.41634 11.1529 6.04967 10.9585C6.68301 10.7641 7.33301 10.6668 7.99967 10.6668ZM7.99967 12.0002C7.54412 12.0002 7.09967 12.0557 6.66634 12.1668C6.23301 12.2779 5.8219 12.4446 5.43301 12.6668C5.8219 12.8891 6.23301 13.0557 6.66634 13.1668C7.09967 13.2779 7.54412 13.3335 7.99967 13.3335C8.45523 13.3335 8.89967 13.2779 9.33301 13.1668C9.76634 13.0557 10.1775 12.8891 10.5663 12.6668C10.1775 12.4446 9.76634 12.2779 9.33301 12.1668C8.89967 12.0557 8.45523 12.0002 7.99967 12.0002ZM4.66634 7.3335C4.85523 7.3335 5.01356 7.26961 5.14134 7.14183C5.26912 7.01405 5.33301 6.85572 5.33301 6.66683C5.33301 6.47794 5.26912 6.31961 5.14134 6.19183C5.01356 6.06405 4.85523 6.00016 4.66634 6.00016C4.47745 6.00016 4.31912 6.06405 4.19134 6.19183C4.06356 6.31961 3.99967 6.47794 3.99967 6.66683C3.99967 6.85572 4.06356 7.01405 4.19134 7.14183C4.31912 7.26961 4.47745 7.3335 4.66634 7.3335ZM6.66634 5.3335C6.85523 5.3335 7.01356 5.26961 7.14134 5.14183C7.26912 5.01405 7.33301 4.85572 7.33301 4.66683C7.33301 4.47794 7.26912 4.31961 7.14134 4.19183C7.01356 4.06405 6.85523 4.00016 6.66634 4.00016C6.47745 4.00016 6.31912 4.06405 6.19134 4.19183C6.06356 4.31961 5.99967 4.47794 5.99967 4.66683C5.99967 4.85572 6.06356 5.01405 6.19134 5.14183C6.31912 5.26961 6.47745 5.3335 6.66634 5.3335ZM11.333 7.3335C11.5219 7.3335 11.6802 7.26961 11.808 7.14183C11.9358 7.01405 11.9997 6.85572 11.9997 6.66683C11.9997 6.47794 11.9358 6.31961 11.808 6.19183C11.6802 6.06405 11.5219 6.00016 11.333 6.00016C11.1441 6.00016 10.9858 6.06405 10.858 6.19183C10.7302 6.31961 10.6663 6.47794 10.6663 6.66683C10.6663 6.85572 10.7302 7.01405 10.858 7.14183C10.9858 7.26961 11.1441 7.3335 11.333 7.3335ZM7.99967 9.3335C8.36634 9.3335 8.68023 9.20294 8.94134 8.94183C9.20245 8.68072 9.33301 8.36683 9.33301 8.00016C9.33301 7.85572 9.31079 7.71405 9.26634 7.57516C9.2219 7.43627 9.15523 7.31127 9.06634 7.20016L9.96634 4.9335C10.0441 4.75572 10.0469 4.58072 9.97467 4.4085C9.90245 4.23627 9.77745 4.11127 9.59967 4.0335C9.43301 3.95572 9.26356 3.95294 9.09134 4.02516C8.91912 4.09738 8.79967 4.22238 8.73301 4.40016L7.83301 6.66683C7.49967 6.72238 7.2219 6.87516 6.99967 7.12516C6.77745 7.37516 6.66634 7.66683 6.66634 8.00016C6.66634 8.36683 6.7969 8.68072 7.05801 8.94183C7.31912 9.20294 7.63301 9.3335 7.99967 9.3335Z" fill="#111111"/>
</svg>
