<svg width="16" height="16" viewBox="0 0 16 16" fill="none" xmlns="http://www.w3.org/2000/svg">
<path d="M10.6667 13.3333C10.1111 13.3333 9.63889 13.1389 9.25 12.75C8.86111 12.3611 8.66667 11.8889 8.66667 11.3333C8.66667 10.7778 8.86111 10.3056 9.25 9.91667C9.63889 9.52778 10.1111 9.33333 10.6667 9.33333C10.7889 9.33333 10.9056 9.34167 11.0167 9.35833C11.1278 9.375 11.2333 9.41111 11.3333 9.46667V4H14.6667V5.33333H12.6667V11.3333C12.6667 11.8889 12.4722 12.3611 12.0833 12.75C11.6944 13.1389 11.2222 13.3333 10.6667 13.3333ZM2 10.6667V9.33333H7.33333V10.6667H2ZM2 8V6.66667H10V8H2ZM2 5.33333V4H10V5.33333H2Z" fill="#111111"/>
</svg>
