<svg width="24" height="24" viewBox="0 0 24 24" fill="none" xmlns="http://www.w3.org/2000/svg">
<g clip-path="url(#clip0_659_3214)">
<path d="M12 0C5.37257 0 0 5.37257 0 12C0 18.6274 5.37257 24 12 24C18.6274 24 24 18.6274 24 12C24 5.37257 18.6274 0 12 0ZM21.7044 11.1371C20.4307 11.0859 18.0204 11.0846 15.2816 11.5635C15.0342 10.9703 14.7815 10.4015 14.5275 9.85867C14.6861 9.78463 14.8435 9.70935 14.9978 9.63158C16.879 8.68355 18.4412 7.45712 19.6587 5.97669C20.8325 7.46316 21.5394 9.24382 21.7044 11.1371ZM18.0565 4.36782C16.9201 5.8154 15.4053 6.9776 13.5235 7.84624C13.3119 7.44736 13.1032 7.06796 12.9007 6.7118C11.865 4.89017 10.8766 3.44038 10.1373 2.43462C10.7447 2.31769 11.3677 2.25736 12 2.25736C14.2272 2.25736 16.3399 3.00025 18.0565 4.36782ZM5.11088 5.11088C5.9237 4.29807 6.85497 3.64687 7.86565 3.17272C8.57519 4.09417 9.74377 5.71975 10.9682 7.87998C11.1081 8.12694 11.2513 8.38631 11.3963 8.6551C10.4555 8.94596 9.44529 9.18011 8.36548 9.35596C5.943 9.75043 3.7598 9.73847 2.53366 9.68237C2.95054 7.96616 3.83023 6.3916 5.11088 5.11088ZM2.25736 12C2.25736 11.9769 2.25803 11.9539 2.2582 11.9309C2.67452 11.953 3.20438 11.9712 3.82204 11.9712C5.12702 11.9712 6.82416 11.89 8.67012 11.5935C10.0017 11.3795 11.2568 11.0776 12.4249 10.691C12.6314 11.1284 12.8373 11.5844 13.0401 12.0574C11.5438 12.4599 10.1701 12.9865 8.93806 13.6316C6.93889 14.6785 5.31043 16.0387 4.08441 17.6827C2.898 16.0375 2.25736 14.0681 2.25736 12ZM5.64277 19.3835C7.35707 16.8728 10.1206 15.1238 13.8766 14.1695C14.6299 16.2407 15.2744 18.5568 15.646 21.0396C14.5026 21.5007 13.27 21.7426 12 21.7426C9.64106 21.7426 7.41006 20.9099 5.64277 19.3835ZM18.8891 18.8891C18.5295 19.2487 18.1464 19.5761 17.7439 19.8712C17.3585 17.6657 16.7787 15.5973 16.111 13.714C18.4774 13.3429 20.5593 13.3522 21.6435 13.3956C21.3481 15.4684 20.396 17.3822 18.8891 18.8891Z" fill="white"/>
</g>
<defs>
<clipPath id="clip0_659_3214">
<rect width="24" height="24" fill="white"/>
</clipPath>
</defs>
</svg>
