<svg width="317" height="58" viewBox="0 0 317 58" fill="none" xmlns="http://www.w3.org/2000/svg">
<g clip-path="url(#clip0_308_1967)">
<path d="M117.924 16.2095C106.599 16.2095 97.3828 25.4135 97.3828 36.7248C97.3828 48.036 106.599 57.24 117.924 57.24C129.25 57.24 138.466 48.036 138.466 36.7248C138.466 25.4135 129.25 16.2095 117.924 16.2095ZM117.924 48.6287C111.351 48.6287 106.005 43.2896 106.005 36.7248C106.005 30.1599 111.351 24.8208 117.924 24.8208C124.498 24.8208 129.844 30.1599 129.844 36.7248C129.844 43.2896 124.498 48.6287 117.924 48.6287Z" fill="#0F0F0E"/>
<path d="M68.8736 16.2095C57.5479 16.2095 48.332 25.4135 48.332 36.7248C48.332 48.036 57.5479 57.24 68.8736 57.24C80.1994 57.24 89.4152 48.036 89.4152 36.7248C89.4152 25.4135 80.1994 16.2095 68.8736 16.2095ZM68.8736 48.6287C62.3003 48.6287 56.9544 43.2896 56.9544 36.7248C56.9544 30.1599 62.3003 24.8208 68.8736 24.8208C75.4469 24.8208 80.7928 30.1599 80.7928 36.7248C80.7928 43.2896 75.4469 48.6287 68.8736 48.6287Z" fill="#0F0F0E"/>
<path d="M247.767 16.2095C236.441 16.2095 227.226 25.4135 227.226 36.7248C227.226 48.036 236.441 57.24 247.767 57.24C252.22 57.24 256.344 55.8116 259.712 53.4004C259.945 55.5583 261.776 57.24 263.998 57.24C266.376 57.24 268.309 55.3101 268.309 52.9344V36.7248C268.309 25.4135 259.093 16.2095 247.767 16.2095ZM247.767 24.8208C254.34 24.8208 259.686 30.1599 259.686 36.7248C259.686 43.2896 254.34 48.6287 247.767 48.6287C241.194 48.6287 235.848 43.2896 235.848 36.7248C235.848 30.1599 241.194 24.8208 247.767 24.8208Z" fill="#0F0F0E"/>
<path d="M312.689 48.6287H296.459C289.885 48.6287 284.539 43.2896 284.539 36.7248C284.539 30.1599 289.885 24.8208 296.459 24.8208H312.689C315.068 24.8208 317 22.8909 317 20.5151C317 18.1394 315.068 16.2095 312.689 16.2095H296.459C285.133 16.2095 275.917 25.4135 275.917 36.7248C275.917 48.036 285.133 57.24 296.459 57.24H312.689C315.068 57.24 317 55.3101 317 52.9344C317 50.5586 315.068 48.6287 312.689 48.6287Z" fill="#0F0F0E"/>
<path d="M199.076 16.2095C192.67 16.2095 186.73 19.1475 182.845 24.1623C178.96 19.1525 173.021 16.2095 166.615 16.2095C155.289 16.2095 146.073 25.4135 146.073 36.7248V52.9344C146.073 55.3101 148.006 57.24 150.384 57.24C152.763 57.24 154.696 55.3101 154.696 52.9344V36.7248C154.696 30.1599 160.042 24.8208 166.615 24.8208C173.188 24.8208 178.534 30.1599 178.534 36.7248V52.9344C178.534 55.3101 180.466 57.24 182.845 57.24C185.224 57.24 187.156 55.3101 187.156 52.9344V36.7248C187.156 30.1599 192.502 24.8208 199.076 24.8208C205.649 24.8208 210.995 30.1599 210.995 36.7248V52.9344C210.995 55.3101 212.927 57.24 215.306 57.24C217.685 57.24 219.617 55.3101 219.617 52.9344V36.7248C219.617 25.4135 210.401 16.2095 199.076 16.2095Z" fill="#0F0F0E"/>
<path d="M20.5416 16.2096C16.2304 16.2096 12.0866 17.5469 8.6224 20.0239V4.30568C8.6224 1.92996 6.68997 0 4.3112 0C1.93243 0 0 1.92996 0 4.30568V52.9345C0 55.3102 1.93243 57.2402 4.3112 57.2402C6.68997 57.2402 8.6224 55.3102 8.6224 52.9345V36.7249C8.6224 30.16 13.9683 24.821 20.5416 24.821C27.1149 24.821 32.4608 30.16 32.4608 36.7249V52.9345C32.4608 55.3102 34.3932 57.2402 36.772 57.2402C39.1508 57.2402 41.0832 55.3102 41.0832 52.9345V36.7249C41.0832 25.4136 31.8674 16.2096 20.5416 16.2096Z" fill="#0F0F0E"/>
</g>
<defs>
<clipPath id="clip0_308_1967">
<rect width="317" height="58" fill="white"/>
</clipPath>
</defs>
</svg>
