<svg width="48" height="24" viewBox="0 0 48 24" fill="none" xmlns="http://www.w3.org/2000/svg">
<path d="M2.72648 19.828C2.93547 19.7011 2.78114 18.4374 3.03835 18.044C3.52706 17.2914 4.78098 18.0936 4.96747 17.1242C5.03177 16.7928 5.02534 15.6468 4.8903 15.3556C4.72633 15.0057 3.90645 14.7641 3.54314 14.4915C1.36002 12.8655 1.69119 9.2634 4.11544 7.96876C8.15372 5.81309 12.2016 10.4992 9.39156 13.9712C8.91893 14.5535 7.62643 15.0088 7.46245 15.3556C7.33384 15.6313 7.31134 16.9817 7.40458 17.2573C7.62643 17.8923 8.80961 17.4772 9.22437 17.821C9.78703 18.2887 9.46873 19.4966 9.78382 19.7537C10.0121 19.9395 12.5232 19.8962 12.909 19.8249C13.1855 19.7754 13.327 19.6546 13.4491 19.4192C16.6322 13.6336 19.7316 7.80151 22.995 2.05615C23.1815 1.72785 23.4066 1.38715 23.4226 1L27.2519 2.87072C27.432 3.16806 25.5254 5.63035 26.387 5.63035H42V18.1339H19.3297C19.2075 18.1339 18.8088 18.4746 18.7027 18.6108C17.571 20.0325 16.9344 22.5908 15.6419 24H0V19.8311C0.459772 19.7351 2.51749 19.9612 2.72648 19.8311V19.828ZM38.7977 11.8837C38.7977 10.9638 38.0228 10.2204 37.0679 10.2204C36.113 10.2204 35.3381 10.9638 35.3381 11.8837C35.3381 12.8035 36.113 13.5469 37.0679 13.5469C38.0228 13.5469 38.7977 12.8035 38.7977 11.8837Z" fill="#90B6BE"/>
<circle cx="42" cy="6" r="6" fill="#111111"/>
<path d="M45.3208 3.6792L41.1069 7.89307L39 5.78613" stroke="white"/>
</svg>
