<svg width="51" height="16" viewBox="0 0 51 16" fill="none" xmlns="http://www.w3.org/2000/svg">
<g clip-path="url(#clip0_656_2911)">
<path d="M2.68421 12V0H0V12C0 14.208 1.80379 16 4.02632 16H10.7368V13.3333H4.02632C3.28547 13.3333 2.68421 12.736 2.68421 12Z" fill="#686A69"/>
<path d="M21.4735 12C21.4735 12.736 20.8723 13.3333 20.1314 13.3333H17.4472C16.7064 13.3333 16.1051 12.736 16.1051 12V0H13.4209V12C13.4209 14.208 15.2247 16 17.4472 16H20.1314C22.354 16 24.1577 14.208 24.1577 12V0H21.4735V12Z" fill="#686A69"/>
<path d="M33.5533 0H30.8691C28.6466 0 26.8428 1.792 26.8428 4V16H29.527V10.6667H34.8954V16H37.5796V4C37.5796 1.792 35.7758 0 33.5533 0ZM34.8954 8H29.527V4C29.527 3.264 30.1282 2.66667 30.8691 2.66667H33.5533C34.2941 2.66667 34.8954 3.264 34.8954 4V8Z" fill="#686A69"/>
<path d="M43.1114 12.392L50.0527 5.496C50.6594 4.89333 51.003 4.07467 51.003 3.22133C51.0003 1.44267 49.5508 0 47.7604 0H40.2634V2.66667H47.7604C48.0664 2.66667 48.3161 2.91467 48.3161 3.21867C48.3161 3.36533 48.257 3.50667 48.1523 3.608L41.211 10.504C40.6043 11.1067 40.2607 11.9253 40.2607 12.7813C40.2607 14.56 41.7102 16 43.5006 16H50.9976V13.3333H43.5006C43.1946 13.3333 42.945 13.0853 42.945 12.7813C42.945 12.6347 43.004 12.4933 43.1087 12.3893L43.1114 12.392Z" fill="#686A69"/>
</g>
<defs>
<clipPath id="clip0_656_2911">
<rect width="51" height="16" fill="white"/>
</clipPath>
</defs>
</svg>
